{
    "asset" : {
        "generator" : "Khronos glTF Blender I/O v1.7.33",
        "version" : "2.0"
    },
    "scene" : 0,
    "scenes" : [
        {
            "name" : "Scene",
            "nodes" : [
                0
            ]
        }
    ],
    "nodes" : [
        {
            "mesh" : 0,
            "name" : "Text"
        }
    ],
    "materials" : [
        {
            "doubleSided" : true,
            "name" : "Material.001",
            "pbrMetallicRoughness" : {
                "baseColorFactor" : [
                    0.8000000715255737,
                    0.004798849578946829,
                    0,
                    1
                ],
                "metallicFactor" : 0.5905511975288391,
                "roughnessFactor" : 0
            }
        }
    ],
    "meshes" : [
        {
            "name" : "Text",
            "primitives" : [
                {
                    "attributes" : {
                        "POSITION" : 0,
                        "NORMAL" : 1,
                        "TEXCOORD_0" : 2
                    },
                    "indices" : 3,
                    "material" : 0
                }
            ]
        }
    ],
    "accessors" : [
        {
            "bufferView" : 0,
            "componentType" : 5126,
            "count" : 2738,
            "max" : [
                2.120500087738037,
                0.10999999940395355,
                1.0089999437332153
            ],
            "min" : [
                -2.118499994277954,
                -0.10999999940395355,
                -0.6910000443458557
            ],
            "type" : "VEC3"
        },
        {
            "bufferView" : 1,
            "componentType" : 5126,
            "count" : 2738,
            "type" : "VEC3"
        },
        {
            "bufferView" : 2,
            "componentType" : 5126,
            "count" : 2738,
            "type" : "VEC2"
        },
        {
            "bufferView" : 3,
            "componentType" : 5123,
            "count" : 5076,
            "type" : "SCALAR"
        }
    ],
    "bufferViews" : [
        {
            "buffer" : 0,
            "byteLength" : 32856,
            "byteOffset" : 0
        },
        {
            "buffer" : 0,
            "byteLength" : 32856,
            "byteOffset" : 32856
        },
        {
            "buffer" : 0,
            "byteLength" : 21904,
            "byteOffset" : 65712
        },
        {
            "buffer" : 0,
            "byteLength" : 10152,
            "byteOffset" : 87616
        }
    ],
    "buffers" : [
        {
            "byteLength" : 97768,
            "uri" : "data:application/octet-stream;base64,"
        }
    ]
}
