{
    "asset" : {
        "generator" : "Khronos glTF Blender I/O v1.6.16",
        "version" : "2.0"
    },
    "scene" : 0,
    "scenes" : [
        {
            "name" : "Scene",
            "nodes" : [
                0,
                1,
                2,
                3,
                4,
                5,
                6,
                7,
                8,
                9
            ]
        }
    ],
    "nodes" : [
        {
            "mesh" : 0,
            "name" : "s.0009",
            "translation" : [
                0.013514947146177292,
                0.0010791269596666098,
                -0.011556596495211124
            ]
        },
        {
            "mesh" : 1,
            "name" : "s.0011",
            "translation" : [
                5.293487265589647e-05,
                0.07229737937450409,
                -0.08838354796171188
            ]
        },
        {
            "mesh" : 2,
            "name" : "s.0012",
            "translation" : [
                0.03564884513616562,
                0.06391587108373642,
                -0.000745838216971606
            ]
        },
        {
            "mesh" : 3,
            "name" : "s.0013",
            "translation" : [
                -0.01708623580634594,
                -0.02416839823126793,
                -0.0914958119392395
            ]
        },
        {
            "mesh" : 4,
            "name" : "s.0014",
            "translation" : [
                0.04656422138214111,
                -0.04572319984436035,
                0.04157686233520508
            ]
        },
        {
            "mesh" : 5,
            "name" : "s.0015",
            "translation" : [
                -0.09662029147148132,
                0.053490620106458664,
                -0.014770014211535454
            ]
        },
        {
            "mesh" : 6,
            "name" : "s.0016",
            "translation" : [
                -0.0837613195180893,
                -0.04218696802854538,
                0.022995494306087494
            ]
        },
        {
            "mesh" : 7,
            "name" : "s.0017",
            "translation" : [
                0.12691730260849,
                0.0013942763907834888,
                -0.07045426964759827
            ]
        },
        {
            "mesh" : 8,
            "name" : "s.0018",
            "translation" : [
                -0.037512458860874176,
                0.04868561029434204,
                0.10790976136922836
            ]
        },
        {
            "mesh" : 9,
            "name" : "s.0019",
            "translation" : [
                0.00277858623303473,
                0.010957898572087288,
                -0.011802508495748043
            ]
        }
    ],
    "materials" : [
        {
            "name" : "Standard_56A43D",
            "pbrMetallicRoughness" : {
                "baseColorFactor" : [
                    0.09305896610021591,
                    0.37123778462409973,
                    0.046665072441101074,
                    1
                ],
                "metallicFactor" : 0.19999995827674866
            }
        },
        {
            "name" : "Standard_49427D",
            "pbrMetallicRoughness" : {
                "baseColorFactor" : [
                    0.0666259378194809,
                    0.05448026955127716,
                    0.20507866144180298,
                    1
                ],
                "metallicFactor" : 0.19999995827674866
            }
        },
        {
            "name" : "Standard_FF917B",
            "pbrMetallicRoughness" : {
                "baseColorFactor" : [
                    1,
                    0.28314873576164246,
                    0.19806930422782898,
                    1
                ],
                "metallicFactor" : 0.19999995827674866
            }
        }
    ],
    "meshes" : [
        {
            "name" : "s.0009",
            "primitives" : [
                {
                    "attributes" : {
                        "POSITION" : 0,
                        "NORMAL" : 1,
                        "TEXCOORD_0" : 2
                    },
                    "indices" : 3,
                    "material" : 0
                }
            ]
        },
        {
            "name" : "s.0011",
            "primitives" : [
                {
                    "attributes" : {
                        "POSITION" : 4,
                        "NORMAL" : 5,
                        "TEXCOORD_0" : 6
                    },
                    "indices" : 7,
                    "material" : 1
                }
            ]
        },
        {
            "name" : "s.0012",
            "primitives" : [
                {
                    "attributes" : {
                        "POSITION" : 8,
                        "NORMAL" : 9,
                        "TEXCOORD_0" : 10
                    },
                    "indices" : 11,
                    "material" : 1
                }
            ]
        },
        {
            "name" : "s.0013",
            "primitives" : [
                {
                    "attributes" : {
                        "POSITION" : 12,
                        "NORMAL" : 13,
                        "TEXCOORD_0" : 14
                    },
                    "indices" : 15,
                    "material" : 1
                }
            ]
        },
        {
            "name" : "s.0014",
            "primitives" : [
                {
                    "attributes" : {
                        "POSITION" : 16,
                        "NORMAL" : 17,
                        "TEXCOORD_0" : 18
                    },
                    "indices" : 19,
                    "material" : 1
                }
            ]
        },
        {
            "name" : "s.0015",
            "primitives" : [
                {
                    "attributes" : {
                        "POSITION" : 20,
                        "NORMAL" : 21,
                        "TEXCOORD_0" : 22
                    },
                    "indices" : 23,
                    "material" : 1
                }
            ]
        },
        {
            "name" : "s.0016",
            "primitives" : [
                {
                    "attributes" : {
                        "POSITION" : 24,
                        "NORMAL" : 25,
                        "TEXCOORD_0" : 26
                    },
                    "indices" : 27,
                    "material" : 1
                }
            ]
        },
        {
            "name" : "s.0017",
            "primitives" : [
                {
                    "attributes" : {
                        "POSITION" : 28,
                        "NORMAL" : 29,
                        "TEXCOORD_0" : 30
                    },
                    "indices" : 31,
                    "material" : 1
                }
            ]
        },
        {
            "name" : "s.0018",
            "primitives" : [
                {
                    "attributes" : {
                        "POSITION" : 32,
                        "NORMAL" : 33,
                        "TEXCOORD_0" : 34
                    },
                    "indices" : 35,
                    "material" : 1
                }
            ]
        },
        {
            "name" : "s.0019",
            "primitives" : [
                {
                    "attributes" : {
                        "POSITION" : 36,
                        "NORMAL" : 37,
                        "TEXCOORD_0" : 38
                    },
                    "indices" : 39,
                    "material" : 2
                }
            ]
        }
    ],
    "accessors" : [
        {
            "bufferView" : 0,
            "componentType" : 5126,
            "count" : 491,
            "max" : [
                0.08065389096736908,
                0.061703816056251526,
                0.08340606093406677
            ],
            "min" : [
                -0.06260262429714203,
                -0.06417623162269592,
                -0.04546573758125305
            ],
            "type" : "VEC3"
        },
        {
            "bufferView" : 1,
            "componentType" : 5126,
            "count" : 491,
            "type" : "VEC3"
        },
        {
            "bufferView" : 2,
            "componentType" : 5126,
            "count" : 491,
            "type" : "VEC2"
        },
        {
            "bufferView" : 3,
            "componentType" : 5123,
            "count" : 2934,
            "type" : "SCALAR"
        },
        {
            "bufferView" : 4,
            "componentType" : 5126,
            "count" : 431,
            "max" : [
                0.024087751284241676,
                0.015776950865983963,
                0.015637923032045364
            ],
            "min" : [
                -0.021109169349074364,
                -0.015459489077329636,
                -0.014948736876249313
            ],
            "type" : "VEC3"
        },
        {
            "bufferView" : 5,
            "componentType" : 5126,
            "count" : 431,
            "type" : "VEC3"
        },
        {
            "bufferView" : 6,
            "componentType" : 5126,
            "count" : 431,
            "type" : "VEC2"
        },
        {
            "bufferView" : 7,
            "componentType" : 5123,
            "count" : 2574,
            "type" : "SCALAR"
        },
        {
            "bufferView" : 8,
            "componentType" : 5126,
            "count" : 424,
            "max" : [
                0.012755639851093292,
                0.014531037770211697,
                0.01578879915177822
            ],
            "min" : [
                -0.013201378285884857,
                -0.01482310239225626,
                -0.016668373718857765
            ],
            "type" : "VEC3"
        },
        {
            "bufferView" : 9,
            "componentType" : 5126,
            "count" : 424,
            "type" : "VEC3"
        },
        {
            "bufferView" : 10,
            "componentType" : 5126,
            "count" : 424,
            "type" : "VEC2"
        },
        {
            "bufferView" : 11,
            "componentType" : 5123,
            "count" : 2532,
            "type" : "SCALAR"
        },
        {
            "bufferView" : 12,
            "componentType" : 5126,
            "count" : 400,
            "max" : [
                0.012355951592326164,
                0.024659018963575363,
                0.0208207368850708
            ],
            "min" : [
                -0.011377783492207527,
                -0.02367546036839485,
                -0.021036505699157715
            ],
            "type" : "VEC3"
        },
        {
            "bufferView" : 13,
            "componentType" : 5126,
            "count" : 400,
            "type" : "VEC3"
        },
        {
            "bufferView" : 14,
            "componentType" : 5126,
            "count" : 400,
            "type" : "VEC2"
        },
        {
            "bufferView" : 15,
            "componentType" : 5123,
            "count" : 2388,
            "type" : "SCALAR"
        },
        {
            "bufferView" : 16,
            "componentType" : 5126,
            "count" : 406,
            "max" : [
                0.013744950294494629,
                0.018218643963336945,
                0.017418265342712402
            ],
            "min" : [
                -0.01402464509010315,
                -0.01674758642911911,
                -0.017933130264282227
            ],
            "type" : "VEC3"
        },
        {
            "bufferView" : 17,
            "componentType" : 5126,
            "count" : 406,
            "type" : "VEC3"
        },
        {
            "bufferView" : 18,
            "componentType" : 5126,
            "count" : 406,
            "type" : "VEC2"
        },
        {
            "bufferView" : 19,
            "componentType" : 5123,
            "count" : 2424,
            "type" : "SCALAR"
        },
        {
            "bufferView" : 20,
            "componentType" : 5126,
            "count" : 377,
            "max" : [
                0.018234791234135628,
                0.02369055710732937,
                0.018375618383288383
            ],
            "min" : [
                -0.01843765191733837,
                -0.022078612819314003,
                -0.021585004404187202
            ],
            "type" : "VEC3"
        },
        {
            "bufferView" : 21,
            "componentType" : 5126,
            "count" : 377,
            "type" : "VEC3"
        },
        {
            "bufferView" : 22,
            "componentType" : 5126,
            "count" : 377,
            "type" : "VEC2"
        },
        {
            "bufferView" : 23,
            "componentType" : 5123,
            "count" : 2250,
            "type" : "SCALAR"
        },
        {
            "bufferView" : 24,
            "componentType" : 5126,
            "count" : 471,
            "max" : [
                0.019018813967704773,
                0.017411120235919952,
                0.02036658674478531
            ],
            "min" : [
                -0.016910001635551453,
                -0.018533319234848022,
                -0.020619772374629974
            ],
            "type" : "VEC3"
        },
        {
            "bufferView" : 25,
            "componentType" : 5126,
            "count" : 471,
            "type" : "VEC3"
        },
        {
            "bufferView" : 26,
            "componentType" : 5126,
            "count" : 471,
            "type" : "VEC2"
        },
        {
            "bufferView" : 27,
            "componentType" : 5123,
            "count" : 2625,
            "type" : "SCALAR"
        },
        {
            "bufferView" : 28,
            "componentType" : 5126,
            "count" : 417,
            "max" : [
                0.02132800593972206,
                0.018841605633497238,
                0.01726672239601612
            ],
            "min" : [
                -0.021300550550222397,
                -0.017918657511472702,
                -0.018254784867167473
            ],
            "type" : "VEC3"
        },
        {
            "bufferView" : 29,
            "componentType" : 5126,
            "count" : 417,
            "type" : "VEC3"
        },
        {
            "bufferView" : 30,
            "componentType" : 5126,
            "count" : 417,
            "type" : "VEC2"
        },
        {
            "bufferView" : 31,
            "componentType" : 5123,
            "count" : 2490,
            "type" : "SCALAR"
        },
        {
            "bufferView" : 32,
            "componentType" : 5126,
            "count" : 405,
            "max" : [
                0.022363759577274323,
                0.018185840919613838,
                0.018367689102888107
            ],
            "min" : [
                -0.02114521712064743,
                -0.016916824504733086,
                -0.01892264559864998
            ],
            "type" : "VEC3"
        },
        {
            "bufferView" : 33,
            "componentType" : 5126,
            "count" : 405,
            "type" : "VEC3"
        },
        {
            "bufferView" : 34,
            "componentType" : 5126,
            "count" : 405,
            "type" : "VEC2"
        },
        {
            "bufferView" : 35,
            "componentType" : 5123,
            "count" : 2418,
            "type" : "SCALAR"
        },
        {
            "bufferView" : 36,
            "componentType" : 5126,
            "count" : 5439,
            "max" : [
                0.13501860201358795,
                0.07467721402645111,
                0.14066453278064728
            ],
            "min" : [
                -0.10024726390838623,
                -0.10528609156608582,
                -0.08287607133388519
            ],
            "type" : "VEC3"
        },
        {
            "bufferView" : 37,
            "componentType" : 5126,
            "count" : 5439,
            "type" : "VEC3"
        },
        {
            "bufferView" : 38,
            "componentType" : 5126,
            "count" : 5439,
            "type" : "VEC2"
        },
        {
            "bufferView" : 39,
            "componentType" : 5123,
            "count" : 30096,
            "type" : "SCALAR"
        }
    ],
    "bufferViews" : [
        {
            "buffer" : 0,
            "byteLength" : 5892,
            "byteOffset" : 0
        },
        {
            "buffer" : 0,
            "byteLength" : 5892,
            "byteOffset" : 5892
        },
        {
            "buffer" : 0,
            "byteLength" : 3928,
            "byteOffset" : 11784
        },
        {
            "buffer" : 0,
            "byteLength" : 5868,
            "byteOffset" : 15712
        },
        {
            "buffer" : 0,
            "byteLength" : 5172,
            "byteOffset" : 21580
        },
        {
            "buffer" : 0,
            "byteLength" : 5172,
            "byteOffset" : 26752
        },
        {
            "buffer" : 0,
            "byteLength" : 3448,
            "byteOffset" : 31924
        },
        {
            "buffer" : 0,
            "byteLength" : 5148,
            "byteOffset" : 35372
        },
        {
            "buffer" : 0,
            "byteLength" : 5088,
            "byteOffset" : 40520
        },
        {
            "buffer" : 0,
            "byteLength" : 5088,
            "byteOffset" : 45608
        },
        {
            "buffer" : 0,
            "byteLength" : 3392,
            "byteOffset" : 50696
        },
        {
            "buffer" : 0,
            "byteLength" : 5064,
            "byteOffset" : 54088
        },
        {
            "buffer" : 0,
            "byteLength" : 4800,
            "byteOffset" : 59152
        },
        {
            "buffer" : 0,
            "byteLength" : 4800,
            "byteOffset" : 63952
        },
        {
            "buffer" : 0,
            "byteLength" : 3200,
            "byteOffset" : 68752
        },
        {
            "buffer" : 0,
            "byteLength" : 4776,
            "byteOffset" : 71952
        },
        {
            "buffer" : 0,
            "byteLength" : 4872,
            "byteOffset" : 76728
        },
        {
            "buffer" : 0,
            "byteLength" : 4872,
            "byteOffset" : 81600
        },
        {
            "buffer" : 0,
            "byteLength" : 3248,
            "byteOffset" : 86472
        },
        {
            "buffer" : 0,
            "byteLength" : 4848,
            "byteOffset" : 89720
        },
        {
            "buffer" : 0,
            "byteLength" : 4524,
            "byteOffset" : 94568
        },
        {
            "buffer" : 0,
            "byteLength" : 4524,
            "byteOffset" : 99092
        },
        {
            "buffer" : 0,
            "byteLength" : 3016,
            "byteOffset" : 103616
        },
        {
            "buffer" : 0,
            "byteLength" : 4500,
            "byteOffset" : 106632
        },
        {
            "buffer" : 0,
            "byteLength" : 5652,
            "byteOffset" : 111132
        },
        {
            "buffer" : 0,
            "byteLength" : 5652,
            "byteOffset" : 116784
        },
        {
            "buffer" : 0,
            "byteLength" : 3768,
            "byteOffset" : 122436
        },
        {
            "buffer" : 0,
            "byteLength" : 5250,
            "byteOffset" : 126204
        },
        {
            "buffer" : 0,
            "byteLength" : 5004,
            "byteOffset" : 131456
        },
        {
            "buffer" : 0,
            "byteLength" : 5004,
            "byteOffset" : 136460
        },
        {
            "buffer" : 0,
            "byteLength" : 3336,
            "byteOffset" : 141464
        },
        {
            "buffer" : 0,
            "byteLength" : 4980,
            "byteOffset" : 144800
        },
        {
            "buffer" : 0,
            "byteLength" : 4860,
            "byteOffset" : 149780
        },
        {
            "buffer" : 0,
            "byteLength" : 4860,
            "byteOffset" : 154640
        },
        {
            "buffer" : 0,
            "byteLength" : 3240,
            "byteOffset" : 159500
        },
        {
            "buffer" : 0,
            "byteLength" : 4836,
            "byteOffset" : 162740
        },
        {
            "buffer" : 0,
            "byteLength" : 65268,
            "byteOffset" : 167576
        },
        {
            "buffer" : 0,
            "byteLength" : 65268,
            "byteOffset" : 232844
        },
        {
            "buffer" : 0,
            "byteLength" : 43512,
            "byteOffset" : 298112
        },
        {
            "buffer" : 0,
            "byteLength" : 60192,
            "byteOffset" : 341624
        }
    ],
    "buffers" : [
        {
            "byteLength" : 401816,
            "uri" : "data:application/octet-stream;base64,"
        }
    ]
}
