{
    "asset" : {
        "generator" : "Khronos glTF Blender I/O v1.7.33",
        "version" : "2.0"
    },
    "scene" : 0,
    "scenes" : [
        {
            "name" : "Scene",
            "nodes" : [
                0
            ]
        }
    ],
    "nodes" : [
        {
            "mesh" : 0,
            "name" : "Text",
            "scale" : [
                0.4734470844268799,
                0.4734470844268799,
                0.4734470844268799
            ]
        }
    ],
    "materials" : [
        {
            "doubleSided" : true,
            "name" : "Material.001",
            "pbrMetallicRoughness" : {
                "baseColorFactor" : [
                    0,
                    0.0694880411028862,
                    0.8000000715255737,
                    1
                ],
                "metallicFactor" : 0,
                "roughnessFactor" : 0
            }
        }
    ],
    "meshes" : [
        {
            "name" : "Text",
            "primitives" : [
                {
                    "attributes" : {
                        "POSITION" : 0,
                        "NORMAL" : 1,
                        "TEXCOORD_0" : 2
                    },
                    "indices" : 3,
                    "material" : 0
                }
            ]
        }
    ],
    "accessors" : [
        {
            "bufferView" : 0,
            "componentType" : 5126,
            "count" : 3512,
            "max" : [
                2.120500087738037,
                0.10999999940395355,
                2.2300000190734863
            ],
            "min" : [
                -2.118499994277954,
                -0.10999999940395355,
                -0.6910000443458557
            ],
            "type" : "VEC3"
        },
        {
            "bufferView" : 1,
            "componentType" : 5126,
            "count" : 3512,
            "type" : "VEC3"
        },
        {
            "bufferView" : 2,
            "componentType" : 5126,
            "count" : 3512,
            "type" : "VEC2"
        },
        {
            "bufferView" : 3,
            "componentType" : 5123,
            "count" : 6792,
            "type" : "SCALAR"
        }
    ],
    "bufferViews" : [
        {
            "buffer" : 0,
            "byteLength" : 42144,
            "byteOffset" : 0
        },
        {
            "buffer" : 0,
            "byteLength" : 42144,
            "byteOffset" : 42144
        },
        {
            "buffer" : 0,
            "byteLength" : 28096,
            "byteOffset" : 84288
        },
        {
            "buffer" : 0,
            "byteLength" : 13584,
            "byteOffset" : 112384
        }
    ],
    "buffers" : [
        {
            "byteLength" : 125968,
            "uri" : "data:application/octet-stream;base64,"
        }
    ]
}
