{
    "asset" : {
        "generator" : "Khronos glTF Blender I/O v1.6.16",
        "version" : "2.0"
    },
    "extensionsUsed" : [
        "KHR_materials_unlit"
    ],
    "scene" : 0,
    "scenes" : [
        {
            "name" : "Scene",
            "nodes" : [
                0
            ]
        }
    ],
    "nodes" : [
        {
            "mesh" : 0,
            "name" : "p.0118",
            "rotation" : [
                -0.031223123893141747,
                0.9659422636032104,
                -0.02971954643726349,
                0.2551421821117401
            ],
            "scale" : [
                5.974694728851318,
                5.97469425201416,
                5.97469425201416
            ],
            "translation" : [
                -0.10905374586582184,
                0.5609757900238037,
                -0.07387612760066986
            ]
        }
    ],
    "materials" : [
        {
            "doubleSided" : true,
            "extensions" : {
                "KHR_materials_unlit" : {}
            },
            "name" : "Flat_FFFFFF_03eb9f90-b77d-4085-a85f-9e8deb092de7.001",
            "pbrMetallicRoughness" : {
                "baseColorTexture" : {
                    "index" : 0
                },
                "metallicFactor" : 0,
                "roughnessFactor" : 0.9
            }
        },
        {
            "doubleSided" : true,
            "extensions" : {
                "KHR_materials_unlit" : {}
            },
            "name" : "Flat_FFFFFF_0fed3c1a-53d4-4577-b307-96339cf96828.001",
            "pbrMetallicRoughness" : {
                "baseColorTexture" : {
                    "index" : 1
                },
                "metallicFactor" : 0,
                "roughnessFactor" : 0.9
            }
        },
        {
            "doubleSided" : true,
            "extensions" : {
                "KHR_materials_unlit" : {}
            },
            "name" : "Flat_FFFFFF_b84e7662-cca5-4036-9c5a-b4232c23c48a.001",
            "pbrMetallicRoughness" : {
                "baseColorTexture" : {
                    "index" : 2
                },
                "metallicFactor" : 0,
                "roughnessFactor" : 0.9
            }
        },
        {
            "doubleSided" : true,
            "extensions" : {
                "KHR_materials_unlit" : {}
            },
            "name" : "Flat_FFFFFF_4c31c5e8-62ae-47e4-89d9-eee02c22aa19.001",
            "pbrMetallicRoughness" : {
                "baseColorTexture" : {
                    "index" : 3
                },
                "metallicFactor" : 0,
                "roughnessFactor" : 0.9
            }
        },
        {
            "doubleSided" : true,
            "extensions" : {
                "KHR_materials_unlit" : {}
            },
            "name" : "Flat_FFFFFF_eded1e36-5f8f-472b-bf83-ad527c828140.001",
            "pbrMetallicRoughness" : {
                "baseColorTexture" : {
                    "index" : 4
                },
                "metallicFactor" : 0,
                "roughnessFactor" : 0.9
            }
        },
        {
            "doubleSided" : true,
            "extensions" : {
                "KHR_materials_unlit" : {}
            },
            "name" : "Flat_FFFFFF_8f060ebf-e6cc-4a22-9f27-a1bbed4e1c70.001",
            "pbrMetallicRoughness" : {
                "baseColorTexture" : {
                    "index" : 5
                },
                "metallicFactor" : 0,
                "roughnessFactor" : 0.9
            }
        },
        {
            "doubleSided" : true,
            "extensions" : {
                "KHR_materials_unlit" : {}
            },
            "name" : "Flat_FFFFFF_e53aaa6a-2358-481b-8ca0-5063611ca08d.001",
            "pbrMetallicRoughness" : {
                "baseColorTexture" : {
                    "index" : 6
                },
                "metallicFactor" : 0,
                "roughnessFactor" : 0.9
            }
        }
    ],
    "meshes" : [
        {
            "name" : "p.001",
            "primitives" : [
                {
                    "attributes" : {
                        "POSITION" : 0,
                        "NORMAL" : 1,
                        "TEXCOORD_0" : 2
                    },
                    "indices" : 3,
                    "material" : 0
                },
                {
                    "attributes" : {
                        "POSITION" : 4,
                        "NORMAL" : 5,
                        "TEXCOORD_0" : 6
                    },
                    "indices" : 7,
                    "material" : 1
                },
                {
                    "attributes" : {
                        "POSITION" : 8,
                        "NORMAL" : 9,
                        "TEXCOORD_0" : 10
                    },
                    "indices" : 11,
                    "material" : 2
                },
                {
                    "attributes" : {
                        "POSITION" : 12,
                        "NORMAL" : 13,
                        "TEXCOORD_0" : 14
                    },
                    "indices" : 15,
                    "material" : 3
                },
                {
                    "attributes" : {
                        "POSITION" : 16,
                        "NORMAL" : 17,
                        "TEXCOORD_0" : 18
                    },
                    "indices" : 19,
                    "material" : 4
                },
                {
                    "attributes" : {
                        "POSITION" : 20,
                        "NORMAL" : 21,
                        "TEXCOORD_0" : 22
                    },
                    "indices" : 23,
                    "material" : 5
                },
                {
                    "attributes" : {
                        "POSITION" : 24,
                        "NORMAL" : 25,
                        "TEXCOORD_0" : 26
                    },
                    "indices" : 27,
                    "material" : 6
                }
            ]
        }
    ],
    "textures" : [
        {
            "sampler" : 0,
            "source" : 0
        },
        {
            "sampler" : 0,
            "source" : 1
        },
        {
            "sampler" : 0,
            "source" : 2
        },
        {
            "sampler" : 0,
            "source" : 3
        },
        {
            "sampler" : 0,
            "source" : 4
        },
        {
            "sampler" : 0,
            "source" : 5
        },
        {
            "sampler" : 0,
            "source" : 6
        }
    ],
    "images" : [
        {
            "bufferView" : 4,
            "mimeType" : "image/png",
            "name" : "Image_7"
        },
        {
            "bufferView" : 9,
            "mimeType" : "image/png",
            "name" : "Image_6"
        },
        {
            "bufferView" : 14,
            "mimeType" : "image/png",
            "name" : "Image_1"
        },
        {
            "bufferView" : 19,
            "mimeType" : "image/png",
            "name" : "Image_5"
        },
        {
            "bufferView" : 24,
            "mimeType" : "image/png",
            "name" : "Image_2"
        },
        {
            "bufferView" : 29,
            "mimeType" : "image/png",
            "name" : "Image_4"
        },
        {
            "bufferView" : 34,
            "mimeType" : "image/png",
            "name" : "Image_3"
        }
    ],
    "accessors" : [
        {
            "bufferView" : 0,
            "componentType" : 5126,
            "count" : 164,
            "max" : [
                0.266182005405426,
                0,
                0.2359001487493515
            ],
            "min" : [
                -0.16162295639514923,
                -0.12219670414924622,
                -0.13824430108070374
            ],
            "type" : "VEC3"
        },
        {
            "bufferView" : 1,
            "componentType" : 5126,
            "count" : 164,
            "type" : "VEC3"
        },
        {
            "bufferView" : 2,
            "componentType" : 5126,
            "count" : 164,
            "type" : "VEC2"
        },
        {
            "bufferView" : 3,
            "componentType" : 5123,
            "count" : 222,
            "type" : "SCALAR"
        },
        {
            "bufferView" : 5,
            "componentType" : 5126,
            "count" : 162,
            "max" : [
                0.436448335647583,
                -0.3052821755409241,
                0.46775931119918823
            ],
            "min" : [
                -0.20303109288215637,
                -0.6888570785522461,
                -0.035012006759643555
            ],
            "type" : "VEC3"
        },
        {
            "bufferView" : 6,
            "componentType" : 5126,
            "count" : 162,
            "type" : "VEC3"
        },
        {
            "bufferView" : 7,
            "componentType" : 5126,
            "count" : 162,
            "type" : "VEC2"
        },
        {
            "bufferView" : 8,
            "componentType" : 5123,
            "count" : 162,
            "type" : "SCALAR"
        },
        {
            "bufferView" : 10,
            "componentType" : 5126,
            "count" : 120,
            "max" : [
                0.3960745334625244,
                -0.08275199681520462,
                0.3086850047111511
            ],
            "min" : [
                -0.18455447256565094,
                -0.21359556913375854,
                -0.09944716840982437
            ],
            "type" : "VEC3"
        },
        {
            "bufferView" : 11,
            "componentType" : 5126,
            "count" : 120,
            "type" : "VEC3"
        },
        {
            "bufferView" : 12,
            "componentType" : 5126,
            "count" : 120,
            "type" : "VEC2"
        },
        {
            "bufferView" : 13,
            "componentType" : 5123,
            "count" : 120,
            "type" : "SCALAR"
        },
        {
            "bufferView" : 15,
            "componentType" : 5126,
            "count" : 474,
            "max" : [
                0.6755800247192383,
                -0.34809261560440063,
                0.7813791036605835
            ],
            "min" : [
                -0.36359792947769165,
                -0.9794033169746399,
                -0.0253334678709507
            ],
            "type" : "VEC3"
        },
        {
            "bufferView" : 16,
            "componentType" : 5126,
            "count" : 474,
            "type" : "VEC3"
        },
        {
            "bufferView" : 17,
            "componentType" : 5126,
            "count" : 474,
            "type" : "VEC2"
        },
        {
            "bufferView" : 18,
            "componentType" : 5123,
            "count" : 474,
            "type" : "SCALAR"
        },
        {
            "bufferView" : 20,
            "componentType" : 5126,
            "count" : 198,
            "max" : [
                0.2817980945110321,
                -0.45205065608024597,
                0.394117534160614
            ],
            "min" : [
                -0.12466152757406235,
                -0.682400643825531,
                0.0758187472820282
            ],
            "type" : "VEC3"
        },
        {
            "bufferView" : 21,
            "componentType" : 5126,
            "count" : 198,
            "type" : "VEC3"
        },
        {
            "bufferView" : 22,
            "componentType" : 5126,
            "count" : 198,
            "type" : "VEC2"
        },
        {
            "bufferView" : 23,
            "componentType" : 5123,
            "count" : 198,
            "type" : "SCALAR"
        },
        {
            "bufferView" : 25,
            "componentType" : 5126,
            "count" : 360,
            "max" : [
                0.4605095088481903,
                -0.20386919379234314,
                0.38719841837882996
            ],
            "min" : [
                -0.3070037364959717,
                -0.32881030440330505,
                -0.15990570187568665
            ],
            "type" : "VEC3"
        },
        {
            "bufferView" : 26,
            "componentType" : 5126,
            "count" : 360,
            "type" : "VEC3"
        },
        {
            "bufferView" : 27,
            "componentType" : 5126,
            "count" : 360,
            "type" : "VEC2"
        },
        {
            "bufferView" : 28,
            "componentType" : 5123,
            "count" : 360,
            "type" : "SCALAR"
        },
        {
            "bufferView" : 30,
            "componentType" : 5126,
            "count" : 90,
            "max" : [
                0.8002188205718994,
                -0.5561596751213074,
                0.8595331907272339
            ],
            "min" : [
                -0.5729208588600159,
                -0.8770599365234375,
                -0.08843013644218445
            ],
            "type" : "VEC3"
        },
        {
            "bufferView" : 31,
            "componentType" : 5126,
            "count" : 90,
            "type" : "VEC3"
        },
        {
            "bufferView" : 32,
            "componentType" : 5126,
            "count" : 90,
            "type" : "VEC2"
        },
        {
            "bufferView" : 33,
            "componentType" : 5123,
            "count" : 90,
            "type" : "SCALAR"
        }
    ],
    "bufferViews" : [
        {
            "buffer" : 0,
            "byteLength" : 1968,
            "byteOffset" : 0
        },
        {
            "buffer" : 0,
            "byteLength" : 1968,
            "byteOffset" : 1968
        },
        {
            "buffer" : 0,
            "byteLength" : 1312,
            "byteOffset" : 3936
        },
        {
            "buffer" : 0,
            "byteLength" : 444,
            "byteOffset" : 5248
        },
        {
            "buffer" : 0,
            "byteLength" : 239488,
            "byteOffset" : 5692
        },
        {
            "buffer" : 0,
            "byteLength" : 1944,
            "byteOffset" : 245180
        },
        {
            "buffer" : 0,
            "byteLength" : 1944,
            "byteOffset" : 247124
        },
        {
            "buffer" : 0,
            "byteLength" : 1296,
            "byteOffset" : 249068
        },
        {
            "buffer" : 0,
            "byteLength" : 324,
            "byteOffset" : 250364
        },
        {
            "buffer" : 0,
            "byteLength" : 402376,
            "byteOffset" : 250688
        },
        {
            "buffer" : 0,
            "byteLength" : 1440,
            "byteOffset" : 653064
        },
        {
            "buffer" : 0,
            "byteLength" : 1440,
            "byteOffset" : 654504
        },
        {
            "buffer" : 0,
            "byteLength" : 960,
            "byteOffset" : 655944
        },
        {
            "buffer" : 0,
            "byteLength" : 240,
            "byteOffset" : 656904
        },
        {
            "buffer" : 0,
            "byteLength" : 185720,
            "byteOffset" : 657144
        },
        {
            "buffer" : 0,
            "byteLength" : 5688,
            "byteOffset" : 842864
        },
        {
            "buffer" : 0,
            "byteLength" : 5688,
            "byteOffset" : 848552
        },
        {
            "buffer" : 0,
            "byteLength" : 3792,
            "byteOffset" : 854240
        },
        {
            "buffer" : 0,
            "byteLength" : 948,
            "byteOffset" : 858032
        },
        {
            "buffer" : 0,
            "byteLength" : 218904,
            "byteOffset" : 858980
        },
        {
            "buffer" : 0,
            "byteLength" : 2376,
            "byteOffset" : 1077884
        },
        {
            "buffer" : 0,
            "byteLength" : 2376,
            "byteOffset" : 1080260
        },
        {
            "buffer" : 0,
            "byteLength" : 1584,
            "byteOffset" : 1082636
        },
        {
            "buffer" : 0,
            "byteLength" : 396,
            "byteOffset" : 1084220
        },
        {
            "buffer" : 0,
            "byteLength" : 195756,
            "byteOffset" : 1084616
        },
        {
            "buffer" : 0,
            "byteLength" : 4320,
            "byteOffset" : 1280372
        },
        {
            "buffer" : 0,
            "byteLength" : 4320,
            "byteOffset" : 1284692
        },
        {
            "buffer" : 0,
            "byteLength" : 2880,
            "byteOffset" : 1289012
        },
        {
            "buffer" : 0,
            "byteLength" : 720,
            "byteOffset" : 1291892
        },
        {
            "buffer" : 0,
            "byteLength" : 295208,
            "byteOffset" : 1292612
        },
        {
            "buffer" : 0,
            "byteLength" : 1080,
            "byteOffset" : 1587820
        },
        {
            "buffer" : 0,
            "byteLength" : 1080,
            "byteOffset" : 1588900
        },
        {
            "buffer" : 0,
            "byteLength" : 720,
            "byteOffset" : 1589980
        },
        {
            "buffer" : 0,
            "byteLength" : 180,
            "byteOffset" : 1590700
        },
        {
            "buffer" : 0,
            "byteLength" : 189840,
            "byteOffset" : 1590880
        }
    ],
    "samplers" : [
        {
            "magFilter" : 9729,
            "minFilter" : 9987
        }
    ],
    "buffers" : [
        {
            "byteLength" : 1780720,
            "uri" : "data:application/octet-stream;base64,"
        }
    ]
}
