{
    "asset" : {
        "generator" : "Khronos glTF Blender I/O v1.6.16",
        "version" : "2.0"
    },
    "extensionsUsed" : [
        "KHR_materials_unlit"
    ],
    "scene" : 0,
    "scenes" : [
        {
            "name" : "Scene",
            "nodes" : [
                0
            ]
        }
    ],
    "nodes" : [
        {
            "mesh" : 0,
            "name" : "s.0089"
        }
    ],
    "materials" : [
        {
            "alphaMode" : "BLEND",
            "extensions" : {
                "KHR_materials_unlit" : {}
            },
            "name" : "Flat_FFFFFF_03eb9f90-b77d-4085-a85f-9e8deb092de7",
            "pbrMetallicRoughness" : {
                "baseColorTexture" : {
                    "index" : 0
                },
                "metallicFactor" : 0,
                "roughnessFactor" : 0.9
            }
        },
        {
            "alphaMode" : "BLEND",
            "extensions" : {
                "KHR_materials_unlit" : {}
            },
            "name" : "Flat_FFFFFF_0fed3c1a-53d4-4577-b307-96339cf96828",
            "pbrMetallicRoughness" : {
                "baseColorTexture" : {
                    "index" : 1
                },
                "metallicFactor" : 0,
                "roughnessFactor" : 0.9
            }
        },
        {
            "alphaMode" : "BLEND",
            "extensions" : {
                "KHR_materials_unlit" : {}
            },
            "name" : "Flat_FFFFFF_b84e7662-cca5-4036-9c5a-b4232c23c48a",
            "pbrMetallicRoughness" : {
                "baseColorTexture" : {
                    "index" : 2
                },
                "metallicFactor" : 0,
                "roughnessFactor" : 0.9
            }
        },
        {
            "alphaMode" : "BLEND",
            "extensions" : {
                "KHR_materials_unlit" : {}
            },
            "name" : "Flat_FFFFFF_4c31c5e8-62ae-47e4-89d9-eee02c22aa19",
            "pbrMetallicRoughness" : {
                "baseColorTexture" : {
                    "index" : 3
                },
                "metallicFactor" : 0,
                "roughnessFactor" : 0.9
            }
        },
        {
            "alphaMode" : "BLEND",
            "extensions" : {
                "KHR_materials_unlit" : {}
            },
            "name" : "Flat_FFFFFF_eded1e36-5f8f-472b-bf83-ad527c828140",
            "pbrMetallicRoughness" : {
                "baseColorTexture" : {
                    "index" : 4
                },
                "metallicFactor" : 0,
                "roughnessFactor" : 0.9
            }
        },
        {
            "alphaMode" : "BLEND",
            "extensions" : {
                "KHR_materials_unlit" : {}
            },
            "name" : "Flat_FFFFFF_8f060ebf-e6cc-4a22-9f27-a1bbed4e1c70",
            "pbrMetallicRoughness" : {
                "baseColorTexture" : {
                    "index" : 5
                },
                "metallicFactor" : 0,
                "roughnessFactor" : 0.9
            }
        },
        {
            "alphaMode" : "BLEND",
            "extensions" : {
                "KHR_materials_unlit" : {}
            },
            "name" : "Flat_FFFFFF_e53aaa6a-2358-481b-8ca0-5063611ca08d",
            "pbrMetallicRoughness" : {
                "baseColorTexture" : {
                    "index" : 6
                },
                "metallicFactor" : 0,
                "roughnessFactor" : 0.9
            }
        }
    ],
    "meshes" : [
        {
            "name" : "s.0089",
            "primitives" : [
                {
                    "attributes" : {
                        "POSITION" : 0,
                        "NORMAL" : 1,
                        "TEXCOORD_0" : 2
                    },
                    "indices" : 3,
                    "material" : 0
                },
                {
                    "attributes" : {
                        "POSITION" : 4,
                        "NORMAL" : 5,
                        "TEXCOORD_0" : 6
                    },
                    "indices" : 7,
                    "material" : 1
                },
                {
                    "attributes" : {
                        "POSITION" : 8,
                        "NORMAL" : 9,
                        "TEXCOORD_0" : 10
                    },
                    "indices" : 11,
                    "material" : 2
                },
                {
                    "attributes" : {
                        "POSITION" : 12,
                        "NORMAL" : 13,
                        "TEXCOORD_0" : 14
                    },
                    "indices" : 15,
                    "material" : 3
                },
                {
                    "attributes" : {
                        "POSITION" : 16,
                        "NORMAL" : 17,
                        "TEXCOORD_0" : 18
                    },
                    "indices" : 19,
                    "material" : 4
                },
                {
                    "attributes" : {
                        "POSITION" : 20,
                        "NORMAL" : 21,
                        "TEXCOORD_0" : 22
                    },
                    "indices" : 23,
                    "material" : 5
                },
                {
                    "attributes" : {
                        "POSITION" : 24,
                        "NORMAL" : 25,
                        "TEXCOORD_0" : 26
                    },
                    "indices" : 27,
                    "material" : 6
                }
            ]
        }
    ],
    "textures" : [
        {
            "sampler" : 0,
            "source" : 0
        },
        {
            "sampler" : 0,
            "source" : 1
        },
        {
            "sampler" : 0,
            "source" : 2
        },
        {
            "sampler" : 0,
            "source" : 3
        },
        {
            "sampler" : 0,
            "source" : 4
        },
        {
            "sampler" : 0,
            "source" : 5
        },
        {
            "sampler" : 0,
            "source" : 6
        }
    ],
    "images" : [
        {
            "bufferView" : 4,
            "mimeType" : "image/png",
            "name" : "Image_7"
        },
        {
            "bufferView" : 9,
            "mimeType" : "image/png",
            "name" : "Image_6"
        },
        {
            "bufferView" : 14,
            "mimeType" : "image/png",
            "name" : "Image_1"
        },
        {
            "bufferView" : 19,
            "mimeType" : "image/png",
            "name" : "Image_5"
        },
        {
            "bufferView" : 24,
            "mimeType" : "image/png",
            "name" : "Image_2"
        },
        {
            "bufferView" : 29,
            "mimeType" : "image/png",
            "name" : "Image_4"
        },
        {
            "bufferView" : 34,
            "mimeType" : "image/png",
            "name" : "Image_3"
        }
    ],
    "accessors" : [
        {
            "bufferView" : 0,
            "componentType" : 5126,
            "count" : 292,
            "max" : [
                3.3727924823760986,
                0.7788670063018799,
                2.0148239135742188
            ],
            "min" : [
                -3.0806665420532227,
                -1.72125244140625,
                -3.0779671669006348
            ],
            "type" : "VEC3"
        },
        {
            "bufferView" : 1,
            "componentType" : 5126,
            "count" : 292,
            "type" : "VEC3"
        },
        {
            "bufferView" : 2,
            "componentType" : 5126,
            "count" : 292,
            "type" : "VEC2"
        },
        {
            "bufferView" : 3,
            "componentType" : 5123,
            "count" : 300,
            "type" : "SCALAR"
        },
        {
            "bufferView" : 5,
            "componentType" : 5126,
            "count" : 96,
            "max" : [
                5.1403913497924805,
                9.019277572631836,
                -0.2904469966888428
            ],
            "min" : [
                -4.635852813720703,
                2.7393932342529297,
                -4.931304931640625
            ],
            "type" : "VEC3"
        },
        {
            "bufferView" : 6,
            "componentType" : 5126,
            "count" : 96,
            "type" : "VEC3"
        },
        {
            "bufferView" : 7,
            "componentType" : 5126,
            "count" : 96,
            "type" : "VEC2"
        },
        {
            "bufferView" : 8,
            "componentType" : 5123,
            "count" : 96,
            "type" : "SCALAR"
        },
        {
            "bufferView" : 10,
            "componentType" : 5126,
            "count" : 90,
            "max" : [
                5.340567588806152,
                2.2312350273132324,
                -0.11114048957824707
            ],
            "min" : [
                -3.5077624320983887,
                -0.013384580612182617,
                -3.5673327445983887
            ],
            "type" : "VEC3"
        },
        {
            "bufferView" : 11,
            "componentType" : 5126,
            "count" : 90,
            "type" : "VEC3"
        },
        {
            "bufferView" : 12,
            "componentType" : 5126,
            "count" : 90,
            "type" : "VEC2"
        },
        {
            "bufferView" : 13,
            "componentType" : 5123,
            "count" : 90,
            "type" : "SCALAR"
        },
        {
            "bufferView" : 15,
            "componentType" : 5126,
            "count" : 279,
            "max" : [
                6.852972030639648,
                13.442411422729492,
                -0.11910414695739746
            ],
            "min" : [
                -7.8853373527526855,
                3.3877687454223633,
                -9.520736694335938
            ],
            "type" : "VEC3"
        },
        {
            "bufferView" : 16,
            "componentType" : 5126,
            "count" : 279,
            "type" : "VEC3"
        },
        {
            "bufferView" : 17,
            "componentType" : 5126,
            "count" : 279,
            "type" : "VEC2"
        },
        {
            "bufferView" : 18,
            "componentType" : 5123,
            "count" : 279,
            "type" : "SCALAR"
        },
        {
            "bufferView" : 20,
            "componentType" : 5126,
            "count" : 123,
            "max" : [
                3.0815978050231934,
                8.826017379760742,
                -1.0014060735702515
            ],
            "min" : [
                -2.9832406044006348,
                5.163323402404785,
                -4.482518196105957
            ],
            "type" : "VEC3"
        },
        {
            "bufferView" : 21,
            "componentType" : 5126,
            "count" : 123,
            "type" : "VEC3"
        },
        {
            "bufferView" : 22,
            "componentType" : 5126,
            "count" : 123,
            "type" : "VEC2"
        },
        {
            "bufferView" : 23,
            "componentType" : 5123,
            "count" : 123,
            "type" : "SCALAR"
        },
        {
            "bufferView" : 25,
            "componentType" : 5126,
            "count" : 297,
            "max" : [
                6.3875226974487305,
                3.726206064224243,
                0.12878799438476562
            ],
            "min" : [
                -5.9663405418396,
                1.0482207536697388,
                -3.3416006565093994
            ],
            "type" : "VEC3"
        },
        {
            "bufferView" : 26,
            "componentType" : 5126,
            "count" : 297,
            "type" : "VEC3"
        },
        {
            "bufferView" : 27,
            "componentType" : 5126,
            "count" : 297,
            "type" : "VEC2"
        },
        {
            "bufferView" : 28,
            "componentType" : 5123,
            "count" : 297,
            "type" : "SCALAR"
        },
        {
            "bufferView" : 30,
            "componentType" : 5126,
            "count" : 39,
            "max" : [
                10.427714347839355,
                12.582040786743164,
                -0.06863069534301758
            ],
            "min" : [
                -11.498870849609375,
                6.819766044616699,
                -8.906221389770508
            ],
            "type" : "VEC3"
        },
        {
            "bufferView" : 31,
            "componentType" : 5126,
            "count" : 39,
            "type" : "VEC3"
        },
        {
            "bufferView" : 32,
            "componentType" : 5126,
            "count" : 39,
            "type" : "VEC2"
        },
        {
            "bufferView" : 33,
            "componentType" : 5123,
            "count" : 39,
            "type" : "SCALAR"
        }
    ],
    "bufferViews" : [
        {
            "buffer" : 0,
            "byteLength" : 3504,
            "byteOffset" : 0
        },
        {
            "buffer" : 0,
            "byteLength" : 3504,
            "byteOffset" : 3504
        },
        {
            "buffer" : 0,
            "byteLength" : 2336,
            "byteOffset" : 7008
        },
        {
            "buffer" : 0,
            "byteLength" : 600,
            "byteOffset" : 9344
        },
        {
            "buffer" : 0,
            "byteLength" : 239488,
            "byteOffset" : 9944
        },
        {
            "buffer" : 0,
            "byteLength" : 1152,
            "byteOffset" : 249432
        },
        {
            "buffer" : 0,
            "byteLength" : 1152,
            "byteOffset" : 250584
        },
        {
            "buffer" : 0,
            "byteLength" : 768,
            "byteOffset" : 251736
        },
        {
            "buffer" : 0,
            "byteLength" : 192,
            "byteOffset" : 252504
        },
        {
            "buffer" : 0,
            "byteLength" : 402376,
            "byteOffset" : 252696
        },
        {
            "buffer" : 0,
            "byteLength" : 1080,
            "byteOffset" : 655072
        },
        {
            "buffer" : 0,
            "byteLength" : 1080,
            "byteOffset" : 656152
        },
        {
            "buffer" : 0,
            "byteLength" : 720,
            "byteOffset" : 657232
        },
        {
            "buffer" : 0,
            "byteLength" : 180,
            "byteOffset" : 657952
        },
        {
            "buffer" : 0,
            "byteLength" : 185720,
            "byteOffset" : 658132
        },
        {
            "buffer" : 0,
            "byteLength" : 3348,
            "byteOffset" : 843852
        },
        {
            "buffer" : 0,
            "byteLength" : 3348,
            "byteOffset" : 847200
        },
        {
            "buffer" : 0,
            "byteLength" : 2232,
            "byteOffset" : 850548
        },
        {
            "buffer" : 0,
            "byteLength" : 558,
            "byteOffset" : 852780
        },
        {
            "buffer" : 0,
            "byteLength" : 218904,
            "byteOffset" : 853340
        },
        {
            "buffer" : 0,
            "byteLength" : 1476,
            "byteOffset" : 1072244
        },
        {
            "buffer" : 0,
            "byteLength" : 1476,
            "byteOffset" : 1073720
        },
        {
            "buffer" : 0,
            "byteLength" : 984,
            "byteOffset" : 1075196
        },
        {
            "buffer" : 0,
            "byteLength" : 246,
            "byteOffset" : 1076180
        },
        {
            "buffer" : 0,
            "byteLength" : 195756,
            "byteOffset" : 1076428
        },
        {
            "buffer" : 0,
            "byteLength" : 3564,
            "byteOffset" : 1272184
        },
        {
            "buffer" : 0,
            "byteLength" : 3564,
            "byteOffset" : 1275748
        },
        {
            "buffer" : 0,
            "byteLength" : 2376,
            "byteOffset" : 1279312
        },
        {
            "buffer" : 0,
            "byteLength" : 594,
            "byteOffset" : 1281688
        },
        {
            "buffer" : 0,
            "byteLength" : 295208,
            "byteOffset" : 1282284
        },
        {
            "buffer" : 0,
            "byteLength" : 468,
            "byteOffset" : 1577492
        },
        {
            "buffer" : 0,
            "byteLength" : 468,
            "byteOffset" : 1577960
        },
        {
            "buffer" : 0,
            "byteLength" : 312,
            "byteOffset" : 1578428
        },
        {
            "buffer" : 0,
            "byteLength" : 78,
            "byteOffset" : 1578740
        },
        {
            "buffer" : 0,
            "byteLength" : 189840,
            "byteOffset" : 1578820
        }
    ],
    "samplers" : [
        {
            "magFilter" : 9729,
            "minFilter" : 9987
        }
    ],
    "buffers" : [
        {
            "byteLength" : 1768660,
            "uri" : "data:application/octet-stream;base64,"
        }
    ]
}
