{
    "asset" : {
        "generator" : "Khronos glTF Blender I/O v1.6.16",
        "version" : "2.0"
    },
    "extensionsUsed" : [
        "KHR_materials_unlit"
    ],
    "scene" : 0,
    "scenes" : [
        {
            "name" : "Scene",
            "nodes" : [
                0
            ]
        }
    ],
    "nodes" : [
        {
            "mesh" : 0,
            "name" : "p.0118"
        }
    ],
    "materials" : [
        {
            "doubleSided" : true,
            "extensions" : {
                "KHR_materials_unlit" : {}
            },
            "name" : "Flat_FFFFFF_03eb9f90-b77d-4085-a85f-9e8deb092de7.001",
            "pbrMetallicRoughness" : {
                "baseColorTexture" : {
                    "index" : 0
                },
                "metallicFactor" : 0,
                "roughnessFactor" : 0.9
            }
        },
        {
            "doubleSided" : true,
            "extensions" : {
                "KHR_materials_unlit" : {}
            },
            "name" : "Flat_FFFFFF_0fed3c1a-53d4-4577-b307-96339cf96828.001",
            "pbrMetallicRoughness" : {
                "baseColorTexture" : {
                    "index" : 1
                },
                "metallicFactor" : 0,
                "roughnessFactor" : 0.9
            }
        },
        {
            "doubleSided" : true,
            "extensions" : {
                "KHR_materials_unlit" : {}
            },
            "name" : "Flat_FFFFFF_b84e7662-cca5-4036-9c5a-b4232c23c48a.001",
            "pbrMetallicRoughness" : {
                "baseColorTexture" : {
                    "index" : 2
                },
                "metallicFactor" : 0,
                "roughnessFactor" : 0.9
            }
        },
        {
            "doubleSided" : true,
            "extensions" : {
                "KHR_materials_unlit" : {}
            },
            "name" : "Flat_FFFFFF_4c31c5e8-62ae-47e4-89d9-eee02c22aa19.001",
            "pbrMetallicRoughness" : {
                "baseColorTexture" : {
                    "index" : 3
                },
                "metallicFactor" : 0,
                "roughnessFactor" : 0.9
            }
        },
        {
            "doubleSided" : true,
            "extensions" : {
                "KHR_materials_unlit" : {}
            },
            "name" : "Flat_FFFFFF_eded1e36-5f8f-472b-bf83-ad527c828140.001",
            "pbrMetallicRoughness" : {
                "baseColorTexture" : {
                    "index" : 4
                },
                "metallicFactor" : 0,
                "roughnessFactor" : 0.9
            }
        },
        {
            "doubleSided" : true,
            "extensions" : {
                "KHR_materials_unlit" : {}
            },
            "name" : "Flat_FFFFFF_8f060ebf-e6cc-4a22-9f27-a1bbed4e1c70.001",
            "pbrMetallicRoughness" : {
                "baseColorTexture" : {
                    "index" : 5
                },
                "metallicFactor" : 0,
                "roughnessFactor" : 0.9
            }
        },
        {
            "doubleSided" : true,
            "extensions" : {
                "KHR_materials_unlit" : {}
            },
            "name" : "Flat_FFFFFF_e53aaa6a-2358-481b-8ca0-5063611ca08d.001",
            "pbrMetallicRoughness" : {
                "baseColorTexture" : {
                    "index" : 6
                },
                "metallicFactor" : 0,
                "roughnessFactor" : 0.9
            }
        }
    ],
    "meshes" : [
        {
            "name" : "p.001",
            "primitives" : [
                {
                    "attributes" : {
                        "POSITION" : 0,
                        "NORMAL" : 1,
                        "TEXCOORD_0" : 2
                    },
                    "indices" : 3,
                    "material" : 0
                },
                {
                    "attributes" : {
                        "POSITION" : 4,
                        "NORMAL" : 5,
                        "TEXCOORD_0" : 6
                    },
                    "indices" : 7,
                    "material" : 1
                },
                {
                    "attributes" : {
                        "POSITION" : 8,
                        "NORMAL" : 9,
                        "TEXCOORD_0" : 10
                    },
                    "indices" : 11,
                    "material" : 2
                },
                {
                    "attributes" : {
                        "POSITION" : 12,
                        "NORMAL" : 13,
                        "TEXCOORD_0" : 14
                    },
                    "indices" : 15,
                    "material" : 3
                },
                {
                    "attributes" : {
                        "POSITION" : 16,
                        "NORMAL" : 17,
                        "TEXCOORD_0" : 18
                    },
                    "indices" : 19,
                    "material" : 4
                },
                {
                    "attributes" : {
                        "POSITION" : 20,
                        "NORMAL" : 21,
                        "TEXCOORD_0" : 22
                    },
                    "indices" : 23,
                    "material" : 5
                },
                {
                    "attributes" : {
                        "POSITION" : 24,
                        "NORMAL" : 25,
                        "TEXCOORD_0" : 26
                    },
                    "indices" : 27,
                    "material" : 6
                }
            ]
        }
    ],
    "textures" : [
        {
            "sampler" : 0,
            "source" : 0
        },
        {
            "sampler" : 0,
            "source" : 1
        },
        {
            "sampler" : 0,
            "source" : 2
        },
        {
            "sampler" : 0,
            "source" : 3
        },
        {
            "sampler" : 0,
            "source" : 4
        },
        {
            "sampler" : 0,
            "source" : 5
        },
        {
            "sampler" : 0,
            "source" : 6
        }
    ],
    "images" : [
        {
            "bufferView" : 4,
            "mimeType" : "image/png",
            "name" : "Image_7"
        },
        {
            "bufferView" : 9,
            "mimeType" : "image/png",
            "name" : "Image_6"
        },
        {
            "bufferView" : 14,
            "mimeType" : "image/png",
            "name" : "Image_1"
        },
        {
            "bufferView" : 19,
            "mimeType" : "image/png",
            "name" : "Image_5"
        },
        {
            "bufferView" : 24,
            "mimeType" : "image/png",
            "name" : "Image_2"
        },
        {
            "bufferView" : 29,
            "mimeType" : "image/png",
            "name" : "Image_4"
        },
        {
            "bufferView" : 34,
            "mimeType" : "image/png",
            "name" : "Image_3"
        }
    ],
    "accessors" : [
        {
            "bufferView" : 0,
            "componentType" : 5126,
            "count" : 222,
            "max" : [
                1.2684959173202515,
                0.6321021914482117,
                0.7498349547386169
            ],
            "min" : [
                -1.4227403402328491,
                -0.20081979036331177,
                -1.394760012626648
            ],
            "type" : "VEC3"
        },
        {
            "bufferView" : 1,
            "componentType" : 5126,
            "count" : 222,
            "type" : "VEC3"
        },
        {
            "bufferView" : 2,
            "componentType" : 5126,
            "count" : 222,
            "type" : "VEC2"
        },
        {
            "bufferView" : 3,
            "componentType" : 5123,
            "count" : 222,
            "type" : "SCALAR"
        },
        {
            "bufferView" : 5,
            "componentType" : 5126,
            "count" : 162,
            "max" : [
                2.1377954483032227,
                -1.4119436740875244,
                -0.30626749992370605
            ],
            "min" : [
                -1.9025965929031372,
                -3.663165330886841,
                -2.2350575923919678
            ],
            "type" : "VEC3"
        },
        {
            "bufferView" : 6,
            "componentType" : 5126,
            "count" : 162,
            "type" : "VEC3"
        },
        {
            "bufferView" : 7,
            "componentType" : 5126,
            "count" : 162,
            "type" : "VEC2"
        },
        {
            "bufferView" : 8,
            "componentType" : 5123,
            "count" : 162,
            "type" : "SCALAR"
        },
        {
            "bufferView" : 10,
            "componentType" : 5126,
            "count" : 120,
            "max" : [
                1.4804086685180664,
                0.052068889141082764,
                -0.1636810451745987
            ],
            "min" : [
                -2.2319488525390625,
                -0.7543110847473145,
                -1.611752986907959
            ],
            "type" : "VEC3"
        },
        {
            "bufferView" : 11,
            "componentType" : 5126,
            "count" : 120,
            "type" : "VEC3"
        },
        {
            "bufferView" : 12,
            "componentType" : 5126,
            "count" : 120,
            "type" : "VEC2"
        },
        {
            "bufferView" : 13,
            "componentType" : 5123,
            "count" : 120,
            "type" : "SCALAR"
        },
        {
            "bufferView" : 15,
            "componentType" : 5126,
            "count" : 474,
            "max" : [
                3.545132637023926,
                -1.747694730758667,
                -0.2379038780927658
            ],
            "min" : [
                -2.553823232650757,
                -5.575068473815918,
                -4.284717559814453
            ],
            "type" : "VEC3"
        },
        {
            "bufferView" : 16,
            "componentType" : 5126,
            "count" : 474,
            "type" : "VEC3"
        },
        {
            "bufferView" : 17,
            "componentType" : 5126,
            "count" : 474,
            "type" : "VEC2"
        },
        {
            "bufferView" : 18,
            "componentType" : 5123,
            "count" : 474,
            "type" : "SCALAR"
        },
        {
            "bufferView" : 20,
            "componentType" : 5126,
            "count" : 198,
            "max" : [
                1.660301685333252,
                -2.150517702102661,
                -0.6132228374481201
            ],
            "min" : [
                -0.9102026224136353,
                -3.540220022201538,
                -2.0726306438446045
            ],
            "type" : "VEC3"
        },
        {
            "bufferView" : 21,
            "componentType" : 5126,
            "count" : 198,
            "type" : "VEC3"
        },
        {
            "bufferView" : 22,
            "componentType" : 5126,
            "count" : 198,
            "type" : "VEC2"
        },
        {
            "bufferView" : 23,
            "componentType" : 5123,
            "count" : 198,
            "type" : "SCALAR"
        },
        {
            "bufferView" : 25,
            "componentType" : 5126,
            "count" : 360,
            "max" : [
                2.631251573562622,
                -0.7510205507278442,
                -0.1084405779838562
            ],
            "min" : [
                -2.5922818183898926,
                -1.4628863334655762,
                -1.568509817123413
            ],
            "type" : "VEC3"
        },
        {
            "bufferView" : 26,
            "componentType" : 5126,
            "count" : 360,
            "type" : "VEC3"
        },
        {
            "bufferView" : 27,
            "componentType" : 5126,
            "count" : 360,
            "type" : "VEC2"
        },
        {
            "bufferView" : 28,
            "componentType" : 5123,
            "count" : 360,
            "type" : "SCALAR"
        },
        {
            "bufferView" : 30,
            "componentType" : 5126,
            "count" : 90,
            "max" : [
                5.181313514709473,
                -2.6730802059173584,
                -0.2827409505844116
            ],
            "min" : [
                -3.9412779808044434,
                -4.934441566467285,
                -3.985414981842041
            ],
            "type" : "VEC3"
        },
        {
            "bufferView" : 31,
            "componentType" : 5126,
            "count" : 90,
            "type" : "VEC3"
        },
        {
            "bufferView" : 32,
            "componentType" : 5126,
            "count" : 90,
            "type" : "VEC2"
        },
        {
            "bufferView" : 33,
            "componentType" : 5123,
            "count" : 90,
            "type" : "SCALAR"
        }
    ],
    "bufferViews" : [
        {
            "buffer" : 0,
            "byteLength" : 2664,
            "byteOffset" : 0
        },
        {
            "buffer" : 0,
            "byteLength" : 2664,
            "byteOffset" : 2664
        },
        {
            "buffer" : 0,
            "byteLength" : 1776,
            "byteOffset" : 5328
        },
        {
            "buffer" : 0,
            "byteLength" : 444,
            "byteOffset" : 7104
        },
        {
            "buffer" : 0,
            "byteLength" : 239488,
            "byteOffset" : 7548
        },
        {
            "buffer" : 0,
            "byteLength" : 1944,
            "byteOffset" : 247036
        },
        {
            "buffer" : 0,
            "byteLength" : 1944,
            "byteOffset" : 248980
        },
        {
            "buffer" : 0,
            "byteLength" : 1296,
            "byteOffset" : 250924
        },
        {
            "buffer" : 0,
            "byteLength" : 324,
            "byteOffset" : 252220
        },
        {
            "buffer" : 0,
            "byteLength" : 402376,
            "byteOffset" : 252544
        },
        {
            "buffer" : 0,
            "byteLength" : 1440,
            "byteOffset" : 654920
        },
        {
            "buffer" : 0,
            "byteLength" : 1440,
            "byteOffset" : 656360
        },
        {
            "buffer" : 0,
            "byteLength" : 960,
            "byteOffset" : 657800
        },
        {
            "buffer" : 0,
            "byteLength" : 240,
            "byteOffset" : 658760
        },
        {
            "buffer" : 0,
            "byteLength" : 185720,
            "byteOffset" : 659000
        },
        {
            "buffer" : 0,
            "byteLength" : 5688,
            "byteOffset" : 844720
        },
        {
            "buffer" : 0,
            "byteLength" : 5688,
            "byteOffset" : 850408
        },
        {
            "buffer" : 0,
            "byteLength" : 3792,
            "byteOffset" : 856096
        },
        {
            "buffer" : 0,
            "byteLength" : 948,
            "byteOffset" : 859888
        },
        {
            "buffer" : 0,
            "byteLength" : 218904,
            "byteOffset" : 860836
        },
        {
            "buffer" : 0,
            "byteLength" : 2376,
            "byteOffset" : 1079740
        },
        {
            "buffer" : 0,
            "byteLength" : 2376,
            "byteOffset" : 1082116
        },
        {
            "buffer" : 0,
            "byteLength" : 1584,
            "byteOffset" : 1084492
        },
        {
            "buffer" : 0,
            "byteLength" : 396,
            "byteOffset" : 1086076
        },
        {
            "buffer" : 0,
            "byteLength" : 195756,
            "byteOffset" : 1086472
        },
        {
            "buffer" : 0,
            "byteLength" : 4320,
            "byteOffset" : 1282228
        },
        {
            "buffer" : 0,
            "byteLength" : 4320,
            "byteOffset" : 1286548
        },
        {
            "buffer" : 0,
            "byteLength" : 2880,
            "byteOffset" : 1290868
        },
        {
            "buffer" : 0,
            "byteLength" : 720,
            "byteOffset" : 1293748
        },
        {
            "buffer" : 0,
            "byteLength" : 295208,
            "byteOffset" : 1294468
        },
        {
            "buffer" : 0,
            "byteLength" : 1080,
            "byteOffset" : 1589676
        },
        {
            "buffer" : 0,
            "byteLength" : 1080,
            "byteOffset" : 1590756
        },
        {
            "buffer" : 0,
            "byteLength" : 720,
            "byteOffset" : 1591836
        },
        {
            "buffer" : 0,
            "byteLength" : 180,
            "byteOffset" : 1592556
        },
        {
            "buffer" : 0,
            "byteLength" : 189840,
            "byteOffset" : 1592736
        }
    ],
    "samplers" : [
        {
            "magFilter" : 9729,
            "minFilter" : 9987
        }
    ],
    "buffers" : [
        {
            "byteLength" : 1782576,
            "uri" : "data:application/octet-stream;base64,"
        }
    ]
}
