{
    "asset" : {
        "generator" : "Khronos glTF Blender I/O v1.6.16",
        "version" : "2.0"
    },
    "extensionsUsed" : [
        "KHR_materials_unlit"
    ],
    "scene" : 0,
    "scenes" : [
        {
            "name" : "Scene",
            "nodes" : [
                0
            ]
        }
    ],
    "nodes" : [
        {
            "mesh" : 0,
            "name" : "s.0089",
            "rotation" : [
                -0.3897680640220642,
                -0.7343711853027344,
                -0.016934005543589592,
                0.5554216504096985
            ],
            "scale" : [
                24.91267967224121,
                24.91267967224121,
                24.912675857543945
            ],
            "translation" : [
                1.911218285560608,
                0.5472660064697266,
                -2.103287696838379
            ]
        }
    ],
    "materials" : [
        {
            "alphaMode" : "BLEND",
            "extensions" : {
                "KHR_materials_unlit" : {}
            },
            "name" : "Flat_FFFFFF_03eb9f90-b77d-4085-a85f-9e8deb092de7",
            "pbrMetallicRoughness" : {
                "baseColorTexture" : {
                    "index" : 0
                },
                "metallicFactor" : 0,
                "roughnessFactor" : 0.9
            }
        },
        {
            "alphaMode" : "BLEND",
            "extensions" : {
                "KHR_materials_unlit" : {}
            },
            "name" : "Flat_FFFFFF_0fed3c1a-53d4-4577-b307-96339cf96828",
            "pbrMetallicRoughness" : {
                "baseColorTexture" : {
                    "index" : 1
                },
                "metallicFactor" : 0,
                "roughnessFactor" : 0.9
            }
        },
        {
            "alphaMode" : "BLEND",
            "extensions" : {
                "KHR_materials_unlit" : {}
            },
            "name" : "Flat_FFFFFF_b84e7662-cca5-4036-9c5a-b4232c23c48a",
            "pbrMetallicRoughness" : {
                "baseColorTexture" : {
                    "index" : 2
                },
                "metallicFactor" : 0,
                "roughnessFactor" : 0.9
            }
        },
        {
            "alphaMode" : "BLEND",
            "extensions" : {
                "KHR_materials_unlit" : {}
            },
            "name" : "Flat_FFFFFF_4c31c5e8-62ae-47e4-89d9-eee02c22aa19",
            "pbrMetallicRoughness" : {
                "baseColorTexture" : {
                    "index" : 3
                },
                "metallicFactor" : 0,
                "roughnessFactor" : 0.9
            }
        },
        {
            "alphaMode" : "BLEND",
            "extensions" : {
                "KHR_materials_unlit" : {}
            },
            "name" : "Flat_FFFFFF_eded1e36-5f8f-472b-bf83-ad527c828140",
            "pbrMetallicRoughness" : {
                "baseColorTexture" : {
                    "index" : 4
                },
                "metallicFactor" : 0,
                "roughnessFactor" : 0.9
            }
        },
        {
            "alphaMode" : "BLEND",
            "extensions" : {
                "KHR_materials_unlit" : {}
            },
            "name" : "Flat_FFFFFF_8f060ebf-e6cc-4a22-9f27-a1bbed4e1c70",
            "pbrMetallicRoughness" : {
                "baseColorTexture" : {
                    "index" : 5
                },
                "metallicFactor" : 0,
                "roughnessFactor" : 0.9
            }
        },
        {
            "alphaMode" : "BLEND",
            "extensions" : {
                "KHR_materials_unlit" : {}
            },
            "name" : "Flat_FFFFFF_e53aaa6a-2358-481b-8ca0-5063611ca08d",
            "pbrMetallicRoughness" : {
                "baseColorTexture" : {
                    "index" : 6
                },
                "metallicFactor" : 0,
                "roughnessFactor" : 0.9
            }
        }
    ],
    "meshes" : [
        {
            "name" : "s.0089",
            "primitives" : [
                {
                    "attributes" : {
                        "POSITION" : 0,
                        "NORMAL" : 1,
                        "TEXCOORD_0" : 2
                    },
                    "indices" : 3,
                    "material" : 0
                },
                {
                    "attributes" : {
                        "POSITION" : 4,
                        "NORMAL" : 5,
                        "TEXCOORD_0" : 6
                    },
                    "indices" : 7,
                    "material" : 1
                },
                {
                    "attributes" : {
                        "POSITION" : 8,
                        "NORMAL" : 9,
                        "TEXCOORD_0" : 10
                    },
                    "indices" : 11,
                    "material" : 2
                },
                {
                    "attributes" : {
                        "POSITION" : 12,
                        "NORMAL" : 13,
                        "TEXCOORD_0" : 14
                    },
                    "indices" : 15,
                    "material" : 3
                },
                {
                    "attributes" : {
                        "POSITION" : 16,
                        "NORMAL" : 17,
                        "TEXCOORD_0" : 18
                    },
                    "indices" : 19,
                    "material" : 4
                },
                {
                    "attributes" : {
                        "POSITION" : 20,
                        "NORMAL" : 21,
                        "TEXCOORD_0" : 22
                    },
                    "indices" : 23,
                    "material" : 5
                },
                {
                    "attributes" : {
                        "POSITION" : 24,
                        "NORMAL" : 25,
                        "TEXCOORD_0" : 26
                    },
                    "indices" : 27,
                    "material" : 6
                }
            ]
        }
    ],
    "textures" : [
        {
            "sampler" : 0,
            "source" : 0
        },
        {
            "sampler" : 0,
            "source" : 1
        },
        {
            "sampler" : 0,
            "source" : 2
        },
        {
            "sampler" : 0,
            "source" : 3
        },
        {
            "sampler" : 0,
            "source" : 4
        },
        {
            "sampler" : 0,
            "source" : 5
        },
        {
            "sampler" : 0,
            "source" : 6
        }
    ],
    "images" : [
        {
            "bufferView" : 4,
            "mimeType" : "image/png",
            "name" : "Image_7"
        },
        {
            "bufferView" : 9,
            "mimeType" : "image/png",
            "name" : "Image_6"
        },
        {
            "bufferView" : 14,
            "mimeType" : "image/png",
            "name" : "Image_1"
        },
        {
            "bufferView" : 19,
            "mimeType" : "image/png",
            "name" : "Image_5"
        },
        {
            "bufferView" : 24,
            "mimeType" : "image/png",
            "name" : "Image_2"
        },
        {
            "bufferView" : 29,
            "mimeType" : "image/png",
            "name" : "Image_4"
        },
        {
            "bufferView" : 34,
            "mimeType" : "image/png",
            "name" : "Image_3"
        }
    ],
    "accessors" : [
        {
            "bufferView" : 0,
            "componentType" : 5126,
            "count" : 291,
            "max" : [
                0.09500505030155182,
                0.012970805168151855,
                0.14965490996837616
            ],
            "min" : [
                -0.038359567523002625,
                -0.19333161413669586,
                -0.08352938294410706
            ],
            "type" : "VEC3"
        },
        {
            "bufferView" : 1,
            "componentType" : 5126,
            "count" : 291,
            "type" : "VEC3"
        },
        {
            "bufferView" : 2,
            "componentType" : 5126,
            "count" : 291,
            "type" : "VEC2"
        },
        {
            "bufferView" : 3,
            "componentType" : 5123,
            "count" : 300,
            "type" : "SCALAR"
        },
        {
            "bufferView" : 5,
            "componentType" : 5126,
            "count" : 96,
            "max" : [
                0.16875937581062317,
                0.213145911693573,
                0.30630138516426086
            ],
            "min" : [
                0.016230903565883636,
                -0.04503139108419418,
                -0.06209522485733032
            ],
            "type" : "VEC3"
        },
        {
            "bufferView" : 6,
            "componentType" : 5126,
            "count" : 96,
            "type" : "VEC3"
        },
        {
            "bufferView" : 7,
            "componentType" : 5126,
            "count" : 96,
            "type" : "VEC2"
        },
        {
            "bufferView" : 8,
            "componentType" : 5123,
            "count" : 96,
            "type" : "SCALAR"
        },
        {
            "bufferView" : 10,
            "componentType" : 5126,
            "count" : 90,
            "max" : [
                0.07358027249574661,
                0.0973999872803688,
                0.1943501979112625
            ],
            "min" : [
                -0.04395008087158203,
                -0.1320260614156723,
                -0.1228702962398529
            ],
            "type" : "VEC3"
        },
        {
            "bufferView" : 11,
            "componentType" : 5126,
            "count" : 90,
            "type" : "VEC3"
        },
        {
            "bufferView" : 12,
            "componentType" : 5126,
            "count" : 90,
            "type" : "VEC2"
        },
        {
            "bufferView" : 13,
            "componentType" : 5123,
            "count" : 90,
            "type" : "SCALAR"
        },
        {
            "bufferView" : 15,
            "componentType" : 5126,
            "count" : 279,
            "max" : [
                0.21606118977069855,
                0.5389595627784729,
                0.5172204971313477
            ],
            "min" : [
                -0.00821901299059391,
                -0.06657043099403381,
                -0.07926876097917557
            ],
            "type" : "VEC3"
        },
        {
            "bufferView" : 16,
            "componentType" : 5126,
            "count" : 279,
            "type" : "VEC3"
        },
        {
            "bufferView" : 17,
            "componentType" : 5126,
            "count" : 279,
            "type" : "VEC2"
        },
        {
            "bufferView" : 18,
            "componentType" : 5123,
            "count" : 279,
            "type" : "SCALAR"
        },
        {
            "bufferView" : 20,
            "componentType" : 5126,
            "count" : 123,
            "max" : [
                0.20289817452430725,
                0.22881239652633667,
                0.2996988296508789
            ],
            "min" : [
                0.06274370849132538,
                0.02696003019809723,
                0.05448555573821068
            ],
            "type" : "VEC3"
        },
        {
            "bufferView" : 21,
            "componentType" : 5126,
            "count" : 123,
            "type" : "VEC3"
        },
        {
            "bufferView" : 22,
            "componentType" : 5126,
            "count" : 123,
            "type" : "VEC2"
        },
        {
            "bufferView" : 23,
            "componentType" : 5123,
            "count" : 123,
            "type" : "SCALAR"
        },
        {
            "bufferView" : 25,
            "componentType" : 5126,
            "count" : 297,
            "max" : [
                0.1395197957754135,
                0.1645873785018921,
                0.30655014514923096
            ],
            "min" : [
                -0.01448395848274231,
                -0.10876065492630005,
                -0.14959716796875
            ],
            "type" : "VEC3"
        },
        {
            "bufferView" : 26,
            "componentType" : 5126,
            "count" : 297,
            "type" : "VEC3"
        },
        {
            "bufferView" : 27,
            "componentType" : 5126,
            "count" : 297,
            "type" : "VEC2"
        },
        {
            "bufferView" : 28,
            "componentType" : 5123,
            "count" : 297,
            "type" : "SCALAR"
        },
        {
            "bufferView" : 30,
            "componentType" : 5126,
            "count" : 39,
            "max" : [
                0.21453377604484558,
                0.5452333092689514,
                0.6042243838310242
            ],
            "min" : [
                0.009592034853994846,
                -0.07159993052482605,
                -0.113218292593956
            ],
            "type" : "VEC3"
        },
        {
            "bufferView" : 31,
            "componentType" : 5126,
            "count" : 39,
            "type" : "VEC3"
        },
        {
            "bufferView" : 32,
            "componentType" : 5126,
            "count" : 39,
            "type" : "VEC2"
        },
        {
            "bufferView" : 33,
            "componentType" : 5123,
            "count" : 39,
            "type" : "SCALAR"
        }
    ],
    "bufferViews" : [
        {
            "buffer" : 0,
            "byteLength" : 3492,
            "byteOffset" : 0
        },
        {
            "buffer" : 0,
            "byteLength" : 3492,
            "byteOffset" : 3492
        },
        {
            "buffer" : 0,
            "byteLength" : 2328,
            "byteOffset" : 6984
        },
        {
            "buffer" : 0,
            "byteLength" : 600,
            "byteOffset" : 9312
        },
        {
            "buffer" : 0,
            "byteLength" : 239488,
            "byteOffset" : 9912
        },
        {
            "buffer" : 0,
            "byteLength" : 1152,
            "byteOffset" : 249400
        },
        {
            "buffer" : 0,
            "byteLength" : 1152,
            "byteOffset" : 250552
        },
        {
            "buffer" : 0,
            "byteLength" : 768,
            "byteOffset" : 251704
        },
        {
            "buffer" : 0,
            "byteLength" : 192,
            "byteOffset" : 252472
        },
        {
            "buffer" : 0,
            "byteLength" : 402376,
            "byteOffset" : 252664
        },
        {
            "buffer" : 0,
            "byteLength" : 1080,
            "byteOffset" : 655040
        },
        {
            "buffer" : 0,
            "byteLength" : 1080,
            "byteOffset" : 656120
        },
        {
            "buffer" : 0,
            "byteLength" : 720,
            "byteOffset" : 657200
        },
        {
            "buffer" : 0,
            "byteLength" : 180,
            "byteOffset" : 657920
        },
        {
            "buffer" : 0,
            "byteLength" : 185720,
            "byteOffset" : 658100
        },
        {
            "buffer" : 0,
            "byteLength" : 3348,
            "byteOffset" : 843820
        },
        {
            "buffer" : 0,
            "byteLength" : 3348,
            "byteOffset" : 847168
        },
        {
            "buffer" : 0,
            "byteLength" : 2232,
            "byteOffset" : 850516
        },
        {
            "buffer" : 0,
            "byteLength" : 558,
            "byteOffset" : 852748
        },
        {
            "buffer" : 0,
            "byteLength" : 218904,
            "byteOffset" : 853308
        },
        {
            "buffer" : 0,
            "byteLength" : 1476,
            "byteOffset" : 1072212
        },
        {
            "buffer" : 0,
            "byteLength" : 1476,
            "byteOffset" : 1073688
        },
        {
            "buffer" : 0,
            "byteLength" : 984,
            "byteOffset" : 1075164
        },
        {
            "buffer" : 0,
            "byteLength" : 246,
            "byteOffset" : 1076148
        },
        {
            "buffer" : 0,
            "byteLength" : 195756,
            "byteOffset" : 1076396
        },
        {
            "buffer" : 0,
            "byteLength" : 3564,
            "byteOffset" : 1272152
        },
        {
            "buffer" : 0,
            "byteLength" : 3564,
            "byteOffset" : 1275716
        },
        {
            "buffer" : 0,
            "byteLength" : 2376,
            "byteOffset" : 1279280
        },
        {
            "buffer" : 0,
            "byteLength" : 594,
            "byteOffset" : 1281656
        },
        {
            "buffer" : 0,
            "byteLength" : 295208,
            "byteOffset" : 1282252
        },
        {
            "buffer" : 0,
            "byteLength" : 468,
            "byteOffset" : 1577460
        },
        {
            "buffer" : 0,
            "byteLength" : 468,
            "byteOffset" : 1577928
        },
        {
            "buffer" : 0,
            "byteLength" : 312,
            "byteOffset" : 1578396
        },
        {
            "buffer" : 0,
            "byteLength" : 78,
            "byteOffset" : 1578708
        },
        {
            "buffer" : 0,
            "byteLength" : 189840,
            "byteOffset" : 1578788
        }
    ],
    "samplers" : [
        {
            "magFilter" : 9729,
            "minFilter" : 9987
        }
    ],
    "buffers" : [
        {
            "byteLength" : 1768628,
            "uri" : "data:application/octet-stream;base64,"
        }
    ]
}
